<svg width="790.5" height="1114" viewBox="0 0 790.5 1114" xmlns="http://www.w3.org/2000/svg">
<style>
    svg {
        font-family: SFMono-Regular,Consolas,Liberation Mono,Menlo,monospace;
        font-size: 14px;
        font-kerning: normal;
        text-rendering: optimizeLegibility;
        fill: #24292e;
    }

    rect {
        fill: #f6f8fa;
        stroke: #d6d8da;
        stroke-width: 1;
    }

    .held {
        fill: #fdd;
    }

    .combo {
        fill: #cdf;
    }

    .ghost {
        fill: #ddd;
    }

    text {
        text-anchor: middle;
        dominant-baseline: middle;
    }

    .label {
        font-weight: bold;
        text-anchor: start;
        stroke: white;
        stroke-width: 2;
        paint-order: stroke;
    }

    .small {
        font-size: 80%;
    }
</style>
<text x="27.5" y="25.0" class="label">DEF:</text>
<rect rx="6" ry="6" x="29.5" y="52" width="55" height="50"/>
<rect rx="6" ry="6" x="88.5" y="52" width="55" height="50"/>
<text x="116.0" y="77.0">Q</text>
<rect rx="6" ry="6" x="147.5" y="52" width="55" height="50"/>
<text x="175.0" y="77.0">W</text>
<rect rx="6" ry="6" x="206.5" y="52" width="55" height="50"/>
<text x="234.0" y="77.0">E</text>
<rect rx="6" ry="6" x="265.5" y="52" width="55" height="50"/>
<text x="293.0" y="77.0">R</text>
<rect rx="6" ry="6" x="324.5" y="52" width="55" height="50"/>
<text x="352.0" y="77.0">T</text>
<rect rx="6" ry="6" x="29.5" y="106" width="55" height="50"/>
<rect rx="6" ry="6" x="88.5" y="106" width="55" height="50"/>
<text x="116.0" y="131.0">A</text>
<rect rx="6" ry="6" x="147.5" y="106" width="55" height="50"/>
<text x="175.0" y="131.0">S</text>
<rect rx="6" ry="6" x="206.5" y="106" width="55" height="50"/>
<text x="234.0" y="131.0">D</text>
<rect rx="6" ry="6" x="265.5" y="106" width="55" height="50"/>
<text x="293.0" y="131.0">F</text>
<rect rx="6" ry="6" x="324.5" y="106" width="55" height="50"/>
<text x="352.0" y="131.0">G</text>
<rect rx="6" ry="6" x="29.5" y="160" width="55" height="50"/>
<rect rx="6" ry="6" x="88.5" y="160" width="55" height="50"/>
<text x="116.0" y="185.0">Z</text>
<rect rx="6" ry="6" x="147.5" y="160" width="55" height="50"/>
<text x="175.0" y="185.0">X</text>
<rect rx="6" ry="6" x="206.5" y="160" width="55" height="50"/>
<text x="234.0" y="185.0">C</text>
<rect rx="6" ry="6" x="265.5" y="160" width="55" height="50"/>
<text x="293.0" y="185.0">V</text>
<rect rx="6" ry="6" x="324.5" y="160" width="55" height="50"/>
<text x="352.0" y="185.0">B</text>
<rect rx="6" ry="6" x="411.0" y="52" width="55" height="50"/>
<text x="438.5" y="77.0">Y</text>
<rect rx="6" ry="6" x="470.0" y="52" width="55" height="50"/>
<text x="497.5" y="77.0">U</text>
<rect rx="6" ry="6" x="529.0" y="52" width="55" height="50"/>
<text x="556.5" y="77.0">I</text>
<rect rx="6" ry="6" x="588.0" y="52" width="55" height="50"/>
<text x="615.5" y="77.0">O</text>
<rect rx="6" ry="6" x="647.0" y="52" width="55" height="50"/>
<text x="674.5" y="77.0">P</text>
<rect rx="6" ry="6" x="706.0" y="52" width="55" height="50"/>
<rect rx="6" ry="6" x="411.0" y="106" width="55" height="50"/>
<text x="438.5" y="131.0">H</text>
<rect rx="6" ry="6" x="470.0" y="106" width="55" height="50"/>
<text x="497.5" y="131.0">J</text>
<rect rx="6" ry="6" x="529.0" y="106" width="55" height="50"/>
<text x="556.5" y="131.0">K</text>
<rect rx="6" ry="6" x="588.0" y="106" width="55" height="50"/>
<text x="615.5" y="131.0">L</text>
<rect rx="6" ry="6" x="647.0" y="106" width="55" height="50"/>
<text x="674.5" y="131.0">&#x27;</text>
<rect rx="6" ry="6" x="706.0" y="106" width="55" height="50"/>
<rect rx="6" ry="6" x="411.0" y="160" width="55" height="50"/>
<text x="438.5" y="185.0">N</text>
<rect rx="6" ry="6" x="470.0" y="160" width="55" height="50"/>
<text x="497.5" y="185.0">M</text>
<rect rx="6" ry="6" x="529.0" y="160" width="55" height="50"/>
<text x="556.5" y="185.0">,</text>
<rect rx="6" ry="6" x="588.0" y="160" width="55" height="50"/>
<text x="615.5" y="185.0">.</text>
<rect rx="6" ry="6" x="647.0" y="160" width="55" height="50"/>
<text x="674.5" y="185.0">BSpace</text>
<rect rx="6" ry="6" x="706.0" y="160" width="55" height="50"/>
<rect rx="6" ry="6" x="147.5" y="214" width="55" height="50"/>
<text x="175.0" y="239.0">NUM</text>
<rect rx="6" ry="6" x="206.5" y="214" width="55" height="50"/>
<text x="234.0" y="239.0">SYM</text>
<rect rx="6" ry="6" x="265.5" y="214" width="55" height="50"/>
<text x="293.0" y="239.0">Shift</text>
<text x="293.0" y="257.0" class="small">Caps</text>
<rect rx="6" ry="6" x="324.5" y="214" width="55" height="50"/>
<text x="352.0" y="239.0">Gui</text>
<rect rx="6" ry="6" x="411.0" y="214" width="55" height="50"/>
<rect rx="6" ry="6" x="470.0" y="214" width="55" height="50"/>
<text x="497.5" y="239.0">Ctrl</text>
<rect rx="6" ry="6" x="529.0" y="214" width="55" height="50"/>
<text x="556.5" y="239.0">Space</text>
<text x="556.5" y="257.0" class="small">Gui</text>
<rect rx="6" ry="6" x="588.0" y="214" width="55" height="50"/>
<text x="615.5" y="239.0">NAV</text>
<rect rx="6" ry="6" x="249.75" y="172.5" width="27.5" height="25.0" class="combo"/>
<text x="263.5" y="185.0" class="small">Esc</text>
<rect rx="6" ry="6" x="572.25" y="172.5" width="27.5" height="25.0" class="combo"/>
<text x="586.0" y="185.0" class="small">Enter</text>
<rect rx="6" ry="6" x="190.75" y="172.5" width="27.5" height="25.0" class="combo"/>
<text x="204.5" y="185.0" class="small">Tab</text>
<rect rx="6" ry="6" x="513.25" y="172.5" width="27.5" height="25.0" class="combo"/>
<text x="527.0" y="185.0" class="small">/</text>
<rect rx="6" ry="6" x="249.75" y="118.5" width="27.5" height="25.0" class="combo"/>
<text x="263.5" y="131.0" class="small">Gui</text>
<rect rx="6" ry="6" x="220.25" y="118.5" width="27.5" height="25.0" class="combo"/>
<text x="234.0" y="131.0" class="small">Alt</text>
<rect rx="6" ry="6" x="513.25" y="118.5" width="27.5" height="25.0" class="combo"/>
<text x="527.0" y="131.0" class="small">Gui</text>
<rect rx="6" ry="6" x="542.75" y="118.5" width="27.5" height="25.0" class="combo"/>
<text x="556.5" y="131.0" class="small">Alt</text>
<rect rx="6" ry="6" x="102.25" y="91.5" width="27.5" height="25.0" class="combo"/>
<text x="116.0" y="104.0" class="small">!</text>
<rect rx="6" ry="6" x="161.25" y="91.5" width="27.5" height="25.0" class="combo"/>
<text x="175.0" y="104.0" class="small">@</text>
<rect rx="6" ry="6" x="220.25" y="91.5" width="27.5" height="25.0" class="combo"/>
<text x="234.0" y="104.0" class="small">#</text>
<rect rx="6" ry="6" x="279.25" y="91.5" width="27.5" height="25.0" class="combo"/>
<text x="293.0" y="104.0" class="small">$</text>
<rect rx="6" ry="6" x="338.25" y="91.5" width="27.5" height="25.0" class="combo"/>
<text x="352.0" y="104.0" class="small">%</text>
<rect rx="6" ry="6" x="424.75" y="91.5" width="27.5" height="25.0" class="combo"/>
<text x="438.5" y="104.0" class="small">^</text>
<rect rx="6" ry="6" x="483.75" y="91.5" width="27.5" height="25.0" class="combo"/>
<text x="497.5" y="104.0" class="small">&amp;</text>
<rect rx="6" ry="6" x="542.75" y="91.5" width="27.5" height="25.0" class="combo"/>
<text x="556.5" y="104.0" class="small">*</text>
<rect rx="6" ry="6" x="601.75" y="91.5" width="27.5" height="25.0" class="combo"/>
<text x="615.5" y="104.0" class="small">|</text>
<rect rx="6" ry="6" x="660.75" y="91.5" width="27.5" height="25.0" class="combo"/>
<text x="674.5" y="104.0" class="small">\</text>
<text x="27.5" y="291.0" class="label">NUM:</text>
<rect rx="6" ry="6" x="29.5" y="318" width="55" height="50"/>
<rect rx="6" ry="6" x="88.5" y="318" width="55" height="50"/>
<text x="116.0" y="343.0">Vol-</text>
<rect rx="6" ry="6" x="147.5" y="318" width="55" height="50"/>
<text x="175.0" y="343.0">Vol+</text>
<rect rx="6" ry="6" x="206.5" y="318" width="55" height="50"/>
<text x="234.0" y="343.0">
<tspan x="234.0" dy="-0.6em">to</tspan><tspan x="234.0" dy="1.2em">WSpace</tspan>
</text>
<rect rx="6" ry="6" x="265.5" y="318" width="55" height="50"/>
<text x="293.0" y="343.0">
<tspan x="293.0" dy="-0.6em">switch</tspan><tspan x="293.0" dy="1.2em">WSpace</tspan>
</text>
<rect rx="6" ry="6" x="324.5" y="318" width="55" height="50"/>
<text x="352.0" y="343.0">*</text>
<rect rx="6" ry="6" x="29.5" y="372" width="55" height="50"/>
<rect rx="6" ry="6" x="88.5" y="372" width="55" height="50"/>
<rect rx="6" ry="6" x="147.5" y="372" width="55" height="50"/>
<text x="175.0" y="397.0">=</text>
<rect rx="6" ry="6" x="206.5" y="372" width="55" height="50"/>
<text x="234.0" y="397.0">:</text>
<rect rx="6" ry="6" x="265.5" y="372" width="55" height="50"/>
<rect rx="6" ry="6" x="324.5" y="372" width="55" height="50"/>
<text x="352.0" y="397.0">/</text>
<rect rx="6" ry="6" x="29.5" y="426" width="55" height="50"/>
<rect rx="6" ry="6" x="88.5" y="426" width="55" height="50"/>
<text x="116.0" y="451.0">Tab</text>
<rect rx="6" ry="6" x="147.5" y="426" width="55" height="50"/>
<text x="175.0" y="451.0">
<tspan x="175.0" dy="-0.6em">Play</tspan><tspan x="175.0" dy="1.2em">Pause</tspan>
</text>
<rect rx="6" ry="6" x="206.5" y="426" width="55" height="50"/>
<text x="234.0" y="451.0">Next</text>
<rect rx="6" ry="6" x="265.5" y="426" width="55" height="50"/>
<text x="293.0" y="451.0">.</text>
<rect rx="6" ry="6" x="324.5" y="426" width="55" height="50"/>
<text x="352.0" y="451.0">=</text>
<rect rx="6" ry="6" x="411.0" y="318" width="55" height="50"/>
<text x="438.5" y="343.0">+</text>
<rect rx="6" ry="6" x="470.0" y="318" width="55" height="50"/>
<text x="497.5" y="343.0">7</text>
<text x="497.5" y="361.0" class="small">F7</text>
<rect rx="6" ry="6" x="529.0" y="318" width="55" height="50"/>
<text x="556.5" y="343.0">8</text>
<text x="556.5" y="361.0" class="small">F8</text>
<rect rx="6" ry="6" x="588.0" y="318" width="55" height="50"/>
<text x="615.5" y="343.0">9</text>
<text x="615.5" y="361.0" class="small">F9</text>
<rect rx="6" ry="6" x="647.0" y="318" width="55" height="50"/>
<text x="674.5" y="343.0">Tmux</text>
<rect rx="6" ry="6" x="706.0" y="318" width="55" height="50"/>
<rect rx="6" ry="6" x="411.0" y="372" width="55" height="50"/>
<text x="438.5" y="397.0">-</text>
<rect rx="6" ry="6" x="470.0" y="372" width="55" height="50"/>
<text x="497.5" y="397.0">4</text>
<text x="497.5" y="415.0" class="small">F4</text>
<rect rx="6" ry="6" x="529.0" y="372" width="55" height="50"/>
<text x="556.5" y="397.0">5</text>
<text x="556.5" y="415.0" class="small">F5</text>
<rect rx="6" ry="6" x="588.0" y="372" width="55" height="50"/>
<text x="615.5" y="397.0">6</text>
<text x="615.5" y="415.0" class="small">F6</text>
<rect rx="6" ry="6" x="647.0" y="372" width="55" height="50"/>
<text x="674.5" y="397.0">Enter</text>
<rect rx="6" ry="6" x="706.0" y="372" width="55" height="50"/>
<rect rx="6" ry="6" x="411.0" y="426" width="55" height="50"/>
<text x="438.5" y="451.0">.</text>
<rect rx="6" ry="6" x="470.0" y="426" width="55" height="50"/>
<text x="497.5" y="451.0">1</text>
<text x="497.5" y="469.0" class="small">F1</text>
<rect rx="6" ry="6" x="529.0" y="426" width="55" height="50"/>
<text x="556.5" y="451.0">2</text>
<text x="556.5" y="469.0" class="small">F2</text>
<rect rx="6" ry="6" x="588.0" y="426" width="55" height="50"/>
<text x="615.5" y="451.0">3</text>
<text x="615.5" y="469.0" class="small">F3</text>
<rect rx="6" ry="6" x="647.0" y="426" width="55" height="50"/>
<rect rx="6" ry="6" x="706.0" y="426" width="55" height="50"/>
<rect rx="6" ry="6" x="147.5" y="480" width="55" height="50" class="held"/>
<text x="175.0" y="505.0">NUM</text>
<rect rx="6" ry="6" x="206.5" y="480" width="55" height="50"/>
<text x="234.0" y="505.0">SYM</text>
<rect rx="6" ry="6" x="265.5" y="480" width="55" height="50"/>
<text x="293.0" y="505.0">Shift</text>
<text x="293.0" y="523.0" class="small">Caps</text>
<rect rx="6" ry="6" x="324.5" y="480" width="55" height="50"/>
<text x="352.0" y="505.0">Gui</text>
<rect rx="6" ry="6" x="411.0" y="480" width="55" height="50"/>
<rect rx="6" ry="6" x="470.0" y="480" width="55" height="50"/>
<text x="497.5" y="505.0">0</text>
<text x="497.5" y="523.0" class="small">Ctrl</text>
<rect rx="6" ry="6" x="529.0" y="480" width="55" height="50"/>
<text x="556.5" y="505.0">DEF</text>
<rect rx="6" ry="6" x="588.0" y="480" width="55" height="50"/>
<text x="615.5" y="505.0">NAV</text>
<text x="27.5" y="557.0" class="label">SYM:</text>
<rect rx="6" ry="6" x="29.5" y="584" width="55" height="50"/>
<rect rx="6" ry="6" x="88.5" y="584" width="55" height="50"/>
<text x="116.0" y="609.0">~</text>
<rect rx="6" ry="6" x="147.5" y="584" width="55" height="50"/>
<text x="175.0" y="609.0">:</text>
<rect rx="6" ry="6" x="206.5" y="584" width="55" height="50"/>
<rect rx="6" ry="6" x="265.5" y="584" width="55" height="50"/>
<text x="293.0" y="609.0">(</text>
<rect rx="6" ry="6" x="324.5" y="584" width="55" height="50"/>
<rect rx="6" ry="6" x="29.5" y="638" width="55" height="50"/>
<rect rx="6" ry="6" x="88.5" y="638" width="55" height="50"/>
<text x="116.0" y="663.0">`</text>
<rect rx="6" ry="6" x="147.5" y="638" width="55" height="50"/>
<text x="175.0" y="663.0">&quot;</text>
<rect rx="6" ry="6" x="206.5" y="638" width="55" height="50"/>
<text x="234.0" y="663.0">=</text>
<rect rx="6" ry="6" x="265.5" y="638" width="55" height="50"/>
<text x="293.0" y="663.0">{</text>
<rect rx="6" ry="6" x="324.5" y="638" width="55" height="50"/>
<text x="352.0" y="663.0">&lt;</text>
<rect rx="6" ry="6" x="29.5" y="692" width="55" height="50"/>
<rect rx="6" ry="6" x="88.5" y="692" width="55" height="50"/>
<text x="116.0" y="717.0">Tab</text>
<rect rx="6" ry="6" x="147.5" y="692" width="55" height="50"/>
<rect rx="6" ry="6" x="206.5" y="692" width="55" height="50"/>
<rect rx="6" ry="6" x="265.5" y="692" width="55" height="50"/>
<text x="293.0" y="717.0">[</text>
<rect rx="6" ry="6" x="324.5" y="692" width="55" height="50"/>
<rect rx="6" ry="6" x="411.0" y="584" width="55" height="50"/>
<rect rx="6" ry="6" x="470.0" y="584" width="55" height="50"/>
<text x="497.5" y="609.0">)</text>
<rect rx="6" ry="6" x="529.0" y="584" width="55" height="50"/>
<text x="556.5" y="609.0">+</text>
<rect rx="6" ry="6" x="588.0" y="584" width="55" height="50"/>
<text x="615.5" y="609.0">?</text>
<rect rx="6" ry="6" x="647.0" y="584" width="55" height="50"/>
<text x="674.5" y="609.0">|</text>
<rect rx="6" ry="6" x="706.0" y="584" width="55" height="50"/>
<rect rx="6" ry="6" x="411.0" y="638" width="55" height="50"/>
<text x="438.5" y="663.0">&gt;</text>
<rect rx="6" ry="6" x="470.0" y="638" width="55" height="50"/>
<text x="497.5" y="663.0">}</text>
<rect rx="6" ry="6" x="529.0" y="638" width="55" height="50"/>
<text x="556.5" y="663.0">-</text>
<rect rx="6" ry="6" x="588.0" y="638" width="55" height="50"/>
<text x="615.5" y="663.0">_</text>
<rect rx="6" ry="6" x="647.0" y="638" width="55" height="50"/>
<text x="674.5" y="663.0">;</text>
<rect rx="6" ry="6" x="706.0" y="638" width="55" height="50"/>
<rect rx="6" ry="6" x="411.0" y="692" width="55" height="50"/>
<rect rx="6" ry="6" x="470.0" y="692" width="55" height="50"/>
<text x="497.5" y="717.0">]</text>
<rect rx="6" ry="6" x="529.0" y="692" width="55" height="50"/>
<rect rx="6" ry="6" x="588.0" y="692" width="55" height="50"/>
<rect rx="6" ry="6" x="647.0" y="692" width="55" height="50"/>
<text x="674.5" y="717.0">BSpace</text>
<rect rx="6" ry="6" x="706.0" y="692" width="55" height="50"/>
<rect rx="6" ry="6" x="147.5" y="746" width="55" height="50"/>
<text x="175.0" y="771.0">NUM</text>
<rect rx="6" ry="6" x="206.5" y="746" width="55" height="50" class="held"/>
<text x="234.0" y="771.0">SYM</text>
<rect rx="6" ry="6" x="265.5" y="746" width="55" height="50"/>
<text x="293.0" y="771.0">Shift</text>
<text x="293.0" y="789.0" class="small">Caps</text>
<rect rx="6" ry="6" x="324.5" y="746" width="55" height="50"/>
<text x="352.0" y="771.0">Gui</text>
<rect rx="6" ry="6" x="411.0" y="746" width="55" height="50"/>
<rect rx="6" ry="6" x="470.0" y="746" width="55" height="50"/>
<text x="497.5" y="771.0">Ctrl</text>
<rect rx="6" ry="6" x="529.0" y="746" width="55" height="50"/>
<text x="556.5" y="771.0">DEF</text>
<rect rx="6" ry="6" x="588.0" y="746" width="55" height="50"/>
<text x="615.5" y="771.0">NAV</text>
<text x="27.5" y="823.0" class="label">NAV:</text>
<rect rx="6" ry="6" x="29.5" y="850" width="55" height="50"/>
<rect rx="6" ry="6" x="88.5" y="850" width="55" height="50"/>
<rect rx="6" ry="6" x="147.5" y="850" width="55" height="50"/>
<rect rx="6" ry="6" x="206.5" y="850" width="55" height="50"/>
<text x="234.0" y="875.0">
<tspan x="234.0" dy="-0.6em">Next</tspan><tspan x="234.0" dy="1.2em">word</tspan>
</text>
<rect rx="6" ry="6" x="265.5" y="850" width="55" height="50"/>
<text x="293.0" y="875.0">Redo</text>
<rect rx="6" ry="6" x="324.5" y="850" width="55" height="50"/>
<rect rx="6" ry="6" x="29.5" y="904" width="55" height="50"/>
<rect rx="6" ry="6" x="88.5" y="904" width="55" height="50"/>
<rect rx="6" ry="6" x="147.5" y="904" width="55" height="50"/>
<rect rx="6" ry="6" x="206.5" y="904" width="55" height="50"/>
<text x="234.0" y="929.0">Cut</text>
<rect rx="6" ry="6" x="265.5" y="904" width="55" height="50"/>
<rect rx="6" ry="6" x="324.5" y="904" width="55" height="50"/>
<rect rx="6" ry="6" x="29.5" y="958" width="55" height="50"/>
<rect rx="6" ry="6" x="88.5" y="958" width="55" height="50"/>
<text x="116.0" y="983.0">Tab</text>
<rect rx="6" ry="6" x="147.5" y="958" width="55" height="50"/>
<text x="175.0" y="983.0">Del</text>
<rect rx="6" ry="6" x="206.5" y="958" width="55" height="50"/>
<rect rx="6" ry="6" x="265.5" y="958" width="55" height="50"/>
<rect rx="6" ry="6" x="324.5" y="958" width="55" height="50"/>
<text x="352.0" y="983.0">
<tspan x="352.0" dy="-0.6em">Prev</tspan><tspan x="352.0" dy="1.2em">word</tspan>
</text>
<rect rx="6" ry="6" x="411.0" y="850" width="55" height="50"/>
<text x="438.5" y="875.0">Copy</text>
<rect rx="6" ry="6" x="470.0" y="850" width="55" height="50"/>
<text x="497.5" y="875.0">Undo</text>
<rect rx="6" ry="6" x="529.0" y="850" width="55" height="50"/>
<text x="556.5" y="875.0">DEF</text>
<rect rx="6" ry="6" x="588.0" y="850" width="55" height="50"/>
<text x="615.5" y="875.0">Del</text>
<rect rx="6" ry="6" x="647.0" y="850" width="55" height="50"/>
<text x="674.5" y="875.0">Paste</text>
<rect rx="6" ry="6" x="706.0" y="850" width="55" height="50"/>
<rect rx="6" ry="6" x="411.0" y="904" width="55" height="50"/>
<text x="438.5" y="929.0">Left</text>
<rect rx="6" ry="6" x="470.0" y="904" width="55" height="50"/>
<text x="497.5" y="929.0">Down</text>
<rect rx="6" ry="6" x="529.0" y="904" width="55" height="50"/>
<text x="556.5" y="929.0">Up</text>
<rect rx="6" ry="6" x="588.0" y="904" width="55" height="50"/>
<text x="615.5" y="929.0">Right</text>
<rect rx="6" ry="6" x="647.0" y="904" width="55" height="50"/>
<rect rx="6" ry="6" x="706.0" y="904" width="55" height="50"/>
<rect rx="6" ry="6" x="411.0" y="958" width="55" height="50"/>
<rect rx="6" ry="6" x="470.0" y="958" width="55" height="50"/>
<text x="497.5" y="983.0">Gui+[</text>
<rect rx="6" ry="6" x="529.0" y="958" width="55" height="50"/>
<text x="556.5" y="983.0">Gui+]</text>
<rect rx="6" ry="6" x="588.0" y="958" width="55" height="50"/>
<rect rx="6" ry="6" x="647.0" y="958" width="55" height="50"/>
<rect rx="6" ry="6" x="706.0" y="958" width="55" height="50"/>
<rect rx="6" ry="6" x="147.5" y="1012" width="55" height="50"/>
<text x="175.0" y="1037.0">NUM</text>
<rect rx="6" ry="6" x="206.5" y="1012" width="55" height="50"/>
<text x="234.0" y="1037.0">SYM</text>
<rect rx="6" ry="6" x="265.5" y="1012" width="55" height="50"/>
<text x="293.0" y="1037.0">Shift</text>
<text x="293.0" y="1055.0" class="small">Caps</text>
<rect rx="6" ry="6" x="324.5" y="1012" width="55" height="50"/>
<text x="352.0" y="1037.0">Gui</text>
<rect rx="6" ry="6" x="411.0" y="1012" width="55" height="50"/>
<rect rx="6" ry="6" x="470.0" y="1012" width="55" height="50"/>
<text x="497.5" y="1037.0">Ctrl</text>
<rect rx="6" ry="6" x="529.0" y="1012" width="55" height="50"/>
<text x="556.5" y="1037.0">DEF</text>
<rect rx="6" ry="6" x="588.0" y="1012" width="55" height="50" class="held"/>
<text x="615.5" y="1037.0">NAV</text>
</svg>
